<svg xmlns="http://www.w3.org/2000/svg" version="1.1" xmlns:xlink="http://www.w3.org/1999/xlink" width="1000" height="1000"><g clip-path="url(#SvgjsClipPath1057)"><rect width="1000" height="1000" fill="#ffffff"></rect><g transform="matrix(1.953125,0,0,1.953125,0,0)"><svg xmlns="http://www.w3.org/2000/svg" version="1.1" xmlns:xlink="http://www.w3.org/1999/xlink" width="512" height="512"><svg id="Layer_1" data-name="Layer 1" xmlns="http://www.w3.org/2000/svg" viewBox="0 0 512 512">
  <defs>
    <style>
      .cls-1 {
        fill: #457cf0;
      }
    </style>
  <clipPath id="SvgjsClipPath1057"><rect width="1000" height="1000" x="0" y="0" rx="0" ry="0"></rect></clipPath></defs>
  <path class="cls-1" d="M509.77,140.15h-128.22c7.87,6.34,18.42,9.49,27.24,14.6,147.44,85.44,119.02,303.55-41.92,347.26-42.17,11.45-146.69,9.83-192.87,6.73-78.52-5.27-149.21-62.33-171.78-137.15h126.44c-.18-2.21-2.44-3-4.1-3.91-30.57-16.66-49.72-25.45-73.38-53.04C-51.75,194.61,32.33,12.82,186.57,3.08c42.81-2.7,105.09-2.82,147.87-.09,80.95,5.16,151.25,60.01,175.34,137.15ZM370.86,140.15h-227.05l-2.67,2.67v228.76h229.73v-231.43Z"></path>
  <path class="cls-1" d="M244.06,147.79c145.22-14.76,157.77,206.97,20.82,216.64-139.18,9.83-153.16-203.19-20.82-216.64Z"></path>
</svg></svg></g></g></svg>