<?xml version="1.0" encoding="UTF-8"?>
<svg id="Layer_1" data-name="Layer 1" xmlns="http://www.w3.org/2000/svg" viewBox="0 0 510 145.24">
  <path d="M286.97,121.41h-31.97v-46c0-9.54-12.18-9.79-12.18,1.01v44.99h-31.97v-46.26c0-9.17-11.93-8.89-11.93-.25l-.38,46.51h-31.46s-1.77-33.51-.12-48.79c2.26-20.94,23-37.75,44.15-33.22,6.12,1.31,11.24,4.62,15.85,8.69,8.11-7.74,17.95-10.78,29.11-8.74,16.47,3.01,29.42,17.06,30.91,33.76v48.29Z"/>
  <path d="M85.51.01v32.95l-38.31-.13c1.91,1.55,22.63,23.02,30.07,31.8,15.67,18.5,8.85,44.51-11.01,53.54-4.42,2.01-9.25,2.95-14.1,2.95l-52.15.03v-32.7l53.28.25c.09-.45-21.48-22.59-28.29-30.41-1.05-1.2-2.19-2.43-3.16-3.69C5.4,33.32,19.42,1.96,46.04,0h39.47Z"/>
  <path d="M121.54,42.34l-.12,28.64c1.09-1.09,14.09-20.11,20.04-28.64h35.65l-73.96,102.9h-35.65l23.09-29.27V42.34h30.96Z"/>
  <path d="M430.78,39.12c33.46-.59,54.54,36.14,36.19,64.53-17.29,26.74-56.92,25.1-72.04-2.76-14.81-27.29,4.86-61.22,35.86-61.77ZM431.79,70.03c-15.86.29-13.31,24.61,2.15,21.67,13.1-2.49,10.6-21.9-2.15-21.67Z"/>
  <path d="M373.88,51.46c-11.65-12.32-31.63-16.82-46.39-7.3-.56.36-1.23.95-2.01,1.73.05-.47-.03-6.53-.15-14.1V.01h-31.51v121.4h31.51v-6.3s.02,0,.04,0c.24.07,3.13,2.71,3.9,3.21,10.27,6.71,25.32,5.62,35.77-.16,23.54-13.03,26.91-47.59,8.84-66.7ZM350.41,89.36c-11.07,8.91-24.15-6.77-14.88-16.01,10.92-10.9,26.37,6.76,14.88,16.01Z"/>
  <rect x="479.04" y=".01" width="30.96" height="121.15"/>
</svg>